<?xml version="1.0" encoding="UTF-8" standalone="no"?>
<!DOCTYPE svg PUBLIC "-//W3C//DTD SVG 1.1//EN" "http://www.w3.org/Graphics/SVG/1.1/DTD/svg11.dtd">
<svg width="100%" height="100%" viewBox="0 0 1280 1280" version="1.1" xmlns="http://www.w3.org/2000/svg" xmlns:xlink="http://www.w3.org/1999/xlink" xml:space="preserve" xmlns:serif="http://www.serif.com/" style="fill-rule:evenodd;clip-rule:evenodd;stroke-linejoin:round;stroke-miterlimit:2;">
    <g transform="matrix(0.1,0,0,-0.1,0,1280)">
        <path d="M6022,12689C5827,12665 5694,12614 5623,12537C5542,12449 5530,12382 5550,12101C5565,11878 5557,11802 5505,11693C5429,11531 5262,11410 4991,11320C4760,11243 4530,11216 4390,11249C4225,11289 4107,11389 4001,11580C3881,11795 3860,11828 3815,11873C3714,11974 3598,11991 3420,11931C3199,11856 2875,11646 2753,11498C2682,11411 2665,11368 2665,11270C2665,11165 2687,11115 2814,10926C2915,10776 2954,10703 2975,10623C3032,10406 2922,10154 2654,9885C2357,9587 2113,9513 1845,9639C1812,9655 1722,9705 1644,9752C1477,9852 1414,9875 1325,9868C1243,9861 1173,9823 1093,9742C971,9619 801,9325 730,9115C702,9031 696,9000 696,8920C695,8836 698,8819 723,8769C769,8675 832,8626 1045,8517C1150,8464 1261,8400 1292,8375C1480,8224 1525,7962 1429,7579C1353,7278 1232,7082 1072,7001C958,6943 919,6937 655,6935C469,6933 404,6929 367,6917C180,6857 110,6692 110,6311C110,5868 192,5640 376,5570C433,5549 442,5548 695,5555C989,5563 1044,5556 1153,5497C1314,5412 1455,5186 1530,4896C1596,4638 1591,4450 1515,4300C1457,4185 1370,4111 1153,3992C981,3896 917,3845 875,3769C849,3721 845,3706 845,3630C846,3526 868,3453 949,3285C1003,3174 1119,2987 1177,2915C1191,2899 1234,2852 1273,2812C1406,2677 1536,2638 1671,2693C1702,2706 1796,2763 1881,2820C2100,2967 2180,3000 2315,3000C2462,3000 2604,2940 2791,2798C2928,2694 3026,2593 3110,2468C3201,2332 3236,2219 3227,2090C3219,1974 3177,1871 3068,1697C3040,1652 3001,1581 2981,1540C2949,1473 2945,1456 2945,1385C2946,1285 2969,1233 3054,1142C3206,980 3476,814 3720,734C3789,712 3824,706 3905,706C3992,705 4011,708 4050,729C4133,772 4178,832 4282,1041C4340,1157 4398,1259 4427,1294C4525,1415 4658,1478 4835,1487C4948,1493 5224,1468 5310,1444C5525,1385 5699,1278 5779,1160C5861,1036 5885,923 5878,695C5868,407 5904,301 6035,225C6089,194 6247,145 6343,130C6454,112 6765,123 6888,149C7069,187 7183,264 7226,375C7248,432 7251,548 7236,790C7222,1028 7258,1138 7390,1270C7477,1357 7523,1386 7720,1476C7906,1560 7955,1577 8065,1595C8321,1637 8501,1592 8641,1451C8703,1388 8738,1335 8861,1116C8914,1021 8988,937 9044,908C9124,867 9288,876 9445,930C9599,983 9847,1139 9978,1264C10041,1324 10069,1360 10097,1416C10131,1486 10132,1493 10128,1567C10121,1668 10103,1707 9979,1892C9869,2056 9839,2112 9815,2205C9795,2284 9796,2351 9819,2442C9845,2545 9884,2618 10006,2796C10266,3176 10567,3332 10855,3236C10903,3220 10996,3173 11087,3118C11283,3002 11346,2976 11430,2976C11551,2975 11648,3042 11800,3231C11925,3387 12017,3556 12072,3730C12090,3788 12095,3828 12095,3905C12095,3994 12092,4010 12068,4056C12021,4145 11949,4200 11747,4299C11638,4353 11541,4408 11506,4437C11396,4526 11334,4647 11321,4802C11313,4895 11324,5133 11341,5225C11367,5367 11447,5569 11519,5673C11564,5739 11651,5815 11720,5850C11818,5899 11887,5910 12130,5910C12407,5910 12467,5925 12543,6009C12623,6097 12653,6207 12671,6470C12698,6877 12613,7155 12435,7239C12369,7270 12290,7275 12078,7260C11852,7244 11773,7252 11665,7304C11533,7366 11448,7466 11345,7682C11283,7813 11237,7965 11214,8124C11171,8419 11254,8625 11472,8763C11501,8782 11585,8830 11657,8870C11809,8953 11871,9008 11907,9087C11959,9201 11938,9327 11831,9545C11645,9922 11425,10150 11249,10150C11158,10150 11097,10123 10920,10006C10829,9946 10731,9886 10702,9872C10438,9751 10172,9840 9854,10155C9639,10368 9550,10534 9550,10720C9550,10851 9579,10930 9706,11142C9813,11319 9834,11373 9835,11460C9835,11524 9831,11544 9806,11593C9746,11711 9565,11853 9314,11980C9123,12077 9009,12113 8890,12114C8711,12115 8654,12064 8507,11768C8425,11603 8400,11562 8346,11503C8201,11346 7992,11297 7688,11349C7322,11412 7060,11553 6967,11736C6913,11843 6908,11877 6901,12160C6895,12406 6893,12429 6872,12475C6826,12577 6731,12643 6583,12676C6502,12695 6134,12703 6022,12689ZM6860,10656C7353,10597 7789,10471 8218,10264C8693,10035 9062,9770 9430,9394C10071,8738 10465,7921 10590,6990C10631,6686 10628,6209 10584,5880C10380,4373 9353,3066 7935,2511C7476,2331 7063,2244 6562,2220C5472,2170 4397,2549 3570,3277C2725,4021 2220,5050 2140,6190C2043,7579 2689,8971 3825,9820C4499,10323 5217,10595 6075,10670C6226,10683 6702,10674 6860,10656Z" style="fill-rule:nonzero;"/>
        <g id="Logo-pix_powered_by_Banco_Central_-Brazil-_2020-.svg" serif:id="Logo—pix_powered_by_Banco_Central_(Brazil,_2020).svg" transform="matrix(32.158,0,0,-32.158,6400,6400)">
            <g transform="matrix(1,0,0,1,-336.99,-119.428)">
                <g id="layer1" transform="matrix(1,0,0,1,-1292.51,-67.1291)">
                    <g id="path2376" transform="matrix(1,0,0,1,-0.0605799,0)">
                        <path d="M1691.79,245.538C1683.06,245.538 1674.85,242.138 1668.67,235.966L1635.29,202.582C1632.95,200.232 1628.86,200.239 1626.52,202.582L1593.01,236.088C1586.84,242.26 1578.63,245.66 1569.89,245.66L1563.32,245.66L1605.6,287.94C1618.8,301.144 1640.21,301.144 1653.41,287.94L1695.82,245.538L1691.79,245.538Z" style="fill:rgb(50,188,173);fill-rule:nonzero;"/>
                    </g>
                    <g id="path2380" transform="matrix(1,0,0,1,-0.0611752,0)">
                        <path d="M1569.89,127.455C1578.63,127.455 1586.84,130.855 1593.01,137.027L1626.52,170.538C1628.93,172.952 1632.87,172.961 1635.29,170.535L1668.67,137.149C1674.85,130.977 1683.06,127.577 1691.79,127.577L1695.82,127.577L1653.41,85.176C1640.21,71.971 1618.8,71.971 1605.6,85.176L1563.32,127.455L1569.89,127.455Z" style="fill:rgb(50,188,173);fill-rule:nonzero;"/>
                    </g>
                    <path id="path2384" d="M1730.89,162.648L1705.26,137.026C1704.7,137.251 1704.09,137.392 1703.44,137.392L1691.79,137.392C1685.77,137.392 1679.88,139.835 1675.62,144.094L1642.24,177.477C1639.11,180.602 1635.01,182.164 1630.91,182.164C1626.8,182.164 1622.7,180.602 1619.58,177.48L1586.07,143.972C1581.81,139.713 1575.92,137.271 1569.89,137.271L1555.57,137.271C1554.96,137.271 1554.39,137.127 1553.85,136.923L1528.12,162.648C1514.92,175.853 1514.92,197.262 1528.12,210.467L1553.85,236.19C1554.39,235.988 1554.96,235.844 1555.57,235.844L1569.89,235.844C1575.92,235.844 1581.81,233.402 1586.07,229.143L1619.57,195.638C1625.63,189.587 1636.19,189.584 1642.24,195.64L1675.62,229.02C1679.88,233.279 1685.77,235.722 1691.79,235.722L1703.44,235.722C1704.09,235.722 1704.7,235.863 1705.26,236.089L1730.89,210.466C1744.09,197.261 1744.09,175.853 1730.89,162.648" style="fill:rgb(50,188,173);fill-rule:nonzero;"/>
                </g>
            </g>
        </g>
    </g>
</svg>
